<?xml version="1.0" encoding="UTF-8"?>
<!DOCTYPE score-partwise PUBLIC
    "-//Recordare//DTD MusicXML 3.1 Partwise//EN"
    "http://www.musicxml.org/dtds/partwise.dtd">
<score-partwise version="3.1">
  <work>
    <work-title>Mary Had a Little Lamb</work-title>
  </work>
  <part-list>
    <score-part id="P1">
      <part-name>Piano</part-name>
      <score-instrument id="P1-I1">
        <instrument-name>Piano</instrument-name>
      </score-instrument>
      <midi-instrument id="P1-I1">
        <midi-channel>1</midi-channel>
        <midi-program>1</midi-program>
      </midi-instrument>
    </score-part>
  </part-list>

  <part id="P1">
    <measure number="1">
      <attributes>
        <divisions>4</divisions>
        <key><fifths>0</fifths></key>
        <time><beats>4</beats><beat-type>4</beat-type></time>
        <staves>2</staves>
        <clef number="1">
          <sign>G</sign><line>2</line>
        </clef>
        <clef number="2">
          <sign>F</sign><line>4</line>
        </clef>
      </attributes>

      <!-- Right hand melody -->
      <note><pitch><step>E</step><octave>4</octave></pitch><duration>4</duration><type>quarter</type><staff>1</staff></note>
      <note><pitch><step>D</step><octave>4</octave></pitch><duration>4</duration><type>quarter</type><staff>1</staff></note>
      <note><pitch><step>C</step><octave>4</octave></pitch><duration>4</duration><type>quarter</type><staff>1</staff></note>
      <note><pitch><step>D</step><octave>4</octave></pitch><duration>4</duration><type>quarter</type><staff>1</staff></note>

      <!-- Left hand accompaniment -->
      <backup><duration>16</duration></backup>
      <note><pitch><step>C</step><octave>3</octave></pitch><duration>16</duration><type>whole</type><staff>2</staff></note>
    </measure>

    <measure number="2">
      <note><pitch><step>E</step><octave>4</octave></pitch><duration>4</duration><type>quarter</type><staff>1</staff></note>
      <note><pitch><step>E</step><octave>4</octave></pitch><duration>4</duration><type>quarter</type><staff>1</staff></note>
      <note><pitch><step>E</step><octave>4</octave></pitch><duration>8</duration><type>half</type><staff>1</staff></note>
      <backup><duration>16</duration></backup>
      <note><pitch><step>G</step><octave>2</octave></pitch><duration>16</duration><type>whole</type><staff>2</staff></note>
    </measure>

    <measure number="3">
      <note><pitch><step>D</step><octave>4</octave></pitch><duration>4</duration><type>quarter</type><staff>1</staff></note>
      <note><pitch><step>D</step><octave>4</octave></pitch><duration>4</duration><type>quarter</type><staff>1</staff></note>
      <note><pitch><step>D</step><octave>4</octave></pitch><duration>8</duration><type>half</type><staff>1</staff></note>
      <backup><duration>16</duration></backup>
      <note><pitch><step>G</step><octave>2</octave></pitch><duration>16</duration><type>whole</type><staff>2</staff></note>
    </measure>

    <measure number="4">
      <note><pitch><step>E</step><octave>4</octave></pitch><duration>4</duration><type>quarter</type><staff>1</staff></note>
      <note><pitch><step>G</step><octave>4</octave></pitch><duration>4</duration><type>quarter</type><staff>1</staff></note>
      <note><pitch><step>G</step><octave>4</octave></pitch><duration>8</duration><type>half</type><staff>1</staff></note>
      <backup><duration>16</duration></backup>
      <note><pitch><step>C</step><octave>3</octave></pitch><duration>16</duration><type>whole</type><staff>2</staff></note>
    </measure>

    <measure number="5">
      <note><pitch><step>E</step><octave>4</octave></pitch><duration>4</duration><type>quarter</type><staff>1</staff></note>
      <note><pitch><step>D</step><octave>4</octave></pitch><duration>4</duration><type>quarter</type><staff>1</staff></note>
      <note><pitch><step>C</step><octave>4</octave></pitch><duration>8</duration><type>half</type><staff>1</staff></note>
      <backup><duration>16</duration></backup>
      <note><pitch><step>G</step><octave>2</octave></pitch><duration>16</duration><type>whole</type><staff>2</staff></note>
    </measure>

    <measure number="6">
      <note><pitch><step>D</step><octave>4</octave></pitch><duration>4</duration><type>quarter</type><staff>1</staff></note>
      <note><pitch><step>D</step><octave>4</octave></pitch><duration>4</duration><type>quarter</type><staff>1</staff></note>
      <note><pitch><step>E</step><octave>4</octave></pitch><duration>8</duration><type>half</type><staff>1</staff></note>
      <backup><duration>16</duration></backup>
      <note><pitch><step>C</step><octave>3</octave></pitch><duration>16</duration><type>whole</type><staff>2</staff></note>
    </measure>

    <measure number="7">
      <note><pitch><step>D</step><octave>4</octave></pitch><duration>4</duration><type>quarter</type><staff>1</staff></note>
      <note><pitch><step>C</step><octave>4</octave></pitch><duration>4</duration><type>quarter</type><staff>1</staff></note>
      <note><pitch><step>D</step><octave>4</octave></pitch><duration>8</duration><type>half</type><staff>1</staff></note>
      <backup><duration>16</duration></backup>
      <note><pitch><step>C</step><octave>3</octave></pitch><duration>16</duration><type>whole</type><staff>2</staff></note>
    </measure>

    <measure number="8">
      <note><pitch><step>C</step><octave>4</octave></pitch><duration>16</duration><type>whole</type><staff>1</staff></note>
      <backup><duration>16</duration></backup>
      <note><pitch><step>C</step><octave>3</octave></pitch><duration>16</duration><type>whole</type><staff>2</staff></note>
      <barline location="right"><bar-style>light-heavy</bar-style></barline>
    </measure>
  </part>
</score-partwise>
