<?xml version="1.0" encoding="UTF-8"?>
<!DOCTYPE score-partwise PUBLIC "-//Recordare//DTD MusicXML 4.0 Partwise//EN" "http://www.musicxml.org/dtds/partwise.dtd">
<score-partwise version="4.0">
	<movement-title>9 Mẫu Luyện Ngón Piano Quan Trọng Khi Tự Học Piano: Mẫu 4</movement-title>
	<identification>
		<encoding>
			<software>MuseScore Studio 4.6.3</software>
			<encoding-date>2025-11-11</encoding-date>
			<supports element="accidental" type="yes"/>
			<supports element="beam" type="yes"/>
			<supports element="print" attribute="new-page" type="yes" value="yes"/>
			<supports element="print" attribute="new-system" type="yes" value="yes"/>
			<supports element="stem" type="yes"/>
		</encoding>
	</identification>
	<defaults>
		<scaling>
			<millimeters>7.112</millimeters>
			<tenths>40</tenths>
		</scaling>
		<page-layout>
			<page-height>1731</page-height>
			<page-width>1374</page-width>
			<page-margins type="both">
				<left-margin>80</left-margin>
				<right-margin>80</right-margin>
				<top-margin>80</top-margin>
				<bottom-margin>80</bottom-margin>
			</page-margins>
		</page-layout>
		<appearance>
			<line-width type="light barline">1.8</line-width>
			<line-width type="heavy barline">5.5</line-width>
			<line-width type="beam">5</line-width>
			<line-width type="bracket">4.5</line-width>
			<line-width type="dashes">1</line-width>
			<line-width type="enclosure">1</line-width>
			<line-width type="ending">1.1</line-width>
			<line-width type="extend">1</line-width>
			<line-width type="leger">1.6</line-width>
			<line-width type="pedal">1.1</line-width>
			<line-width type="octave shift">1.1</line-width>
			<line-width type="slur middle">2.1</line-width>
			<line-width type="slur tip">0.5</line-width>
			<line-width type="staff">1.1</line-width>
			<line-width type="stem">1</line-width>
			<line-width type="tie middle">2.1</line-width>
			<line-width type="tie tip">0.5</line-width>
			<line-width type="tuplet bracket">1</line-width>
			<line-width type="wedge">1.2</line-width>
			<note-size type="cue">70</note-size>
			<note-size type="grace">70</note-size>
			<note-size type="grace-cue">49</note-size>
		</appearance>
		<music-font font-family="Leland"/>
		<word-font font-family="Edwin" font-size="10"/>
		<lyric-font font-family="Sans Serif" font-size="10"/>
	</defaults>
  <credit page="1">
    <credit-words default-x="632" default-y="1505" font-family="sans-serif" font-size="20">9 Mẫu Luyện Ngón Piano Quan Trọng Khi Tự Học Piano: Mẫu 4</credit-words>
  </credit>
  <credit page="1">
    <credit-words default-x="406" default-y="1433" font-family="sans-serif" font-size="11">Xem video hướng dẫn tại kênh YouTube THAIKEYBOARD</credit-words>
  </credit>
  <credit page="1">
    <credit-words default-x="434" default-y="1274" font-family="serif" font-size="12">https://www.youtube.com/watch?v=xN8A2KG1cv8</credit-words>
  </credit>
  <credit page="1">
    <credit-words default-x="183" default-y="710" font-family="sans-serif" font-size="10">(Các số dưới mỗi nốt là số của ngón tay)</credit-words>
  </credit>
	<part-list>
		<score-part id="P1">
			<part-name>Piano</part-name>
			<part-abbreviation>Piano</part-abbreviation>
			<score-instrument id="P1-I1">
				<instrument-name>Acoustic Grand Piano</instrument-name>
				<instrument-sound>keyboard.piano</instrument-sound>
			</score-instrument>
			<midi-device id="P1-I1" port="1"></midi-device>
			<midi-instrument id="P1-I1">
				<midi-channel>1</midi-channel>
				<midi-program>1</midi-program>
				<volume>77.9528</volume>
				<pan>0</pan>
			</midi-instrument>
		</score-part>
	</part-list>
	<part id="P1">
		<measure number="1" width="186.68">
			<print>
				<system-layout>
					<system-margins>
						<left-margin>50</left-margin>
						<right-margin>0</right-margin>
					</system-margins>
					<top-system-distance>167.3</top-system-distance>
				</system-layout>
				<staff-layout number="2">
					<staff-distance>82.98</staff-distance>
				</staff-layout>
			</print>
			<attributes>
				<divisions>1</divisions>
				<key>
					<fifths>0</fifths>
				</key>
				<time>
					<beats>4</beats>
					<beat-type>4</beat-type>
				</time>
				<staves>2</staves>
				<clef number="1">
					<sign>G</sign>
					<line>2</line>
				</clef>
				<clef number="2">
					<sign>F</sign>
					<line>4</line>
				</clef>
			</attributes>
			<note default-x="117.43" default-y="20">
				<rest measure="yes">
					<display-step>F</display-step>
					<display-octave>5</display-octave>
				</rest>
				<duration>4</duration>
				<voice>1</voice>
				<staff>1</staff>
			</note>
			<backup>
				<duration>4</duration>
			</backup>
			<note default-x="82.01" default-y="-50">
				<pitch>
					<step>C</step>
					<octave>4</octave>
				</pitch>
				<duration>4</duration>
				<voice>2</voice>
				<type>whole</type>
				<staff>1</staff>
				<notations>
					<slur type="start" orientation="under" placement="below" bezier-x="24.165786" bezier-y="-16.164823" number="1"/>
				</notations>
				<lyric number="1" default-x="7.46" default-y="-64.93" relative-y="-30">
					<syllabic>single</syllabic>
					<text>1</text>
				</lyric>
			</note>
			<backup>
				<duration>4</duration>
			</backup>
			<note default-x="117.43" default-y="-102.98">
				<rest measure="yes">
					<display-step>A</display-step>
					<display-octave>3</display-octave>
				</rest>
				<duration>4</duration>
				<voice>5</voice>
				<staff>2</staff>
			</note>
			<backup>
				<duration>4</duration>
			</backup>
			<note default-x="82.01" default-y="-147.98">
				<pitch>
					<step>C</step>
					<octave>3</octave>
				</pitch>
				<duration>4</duration>
				<voice>6</voice>
				<type>whole</type>
				<staff>2</staff>
				<notations>
					<slur type="start" orientation="under" placement="below" bezier-x="23.678213" bezier-y="-16.837127" number="2"/>
				</notations>
				<lyric number="1" default-x="7.46" default-y="-40.57" relative-y="-30">
					<syllabic>single</syllabic>
					<text>5</text>
				</lyric>
			</note>
		</measure>
		<measure number="2" width="195.46">
			<note default-x="12.5" default-y="-45">
				<pitch>
					<step>D</step>
					<octave>4</octave>
				</pitch>
				<duration>1</duration>
				<voice>1</voice>
				<type>quarter</type>
				<stem>up</stem>
				<staff>1</staff>
				<notations>
					<slur type="stop" number="1" bezier-x="-22.687979" bezier-y="-18.180823"/>
				</notations>
				<lyric number="1" default-x="6.5" default-y="-64.93" relative-y="-30">
					<syllabic>single</syllabic>
					<text>2</text>
				</lyric>
			</note>
			<note default-x="57.79" default-y="-40">
				<pitch>
					<step>E</step>
					<octave>4</octave>
				</pitch>
				<duration>1</duration>
				<voice>1</voice>
				<type>quarter</type>
				<stem>up</stem>
				<staff>1</staff>
				<lyric number="1" default-x="6.5" default-y="-64.93" relative-y="-30">
					<syllabic>single</syllabic>
					<text>3</text>
				</lyric>
			</note>
			<note default-x="103.08" default-y="-45">
				<pitch>
					<step>D</step>
					<octave>4</octave>
				</pitch>
				<duration>1</duration>
				<voice>1</voice>
				<type>quarter</type>
				<stem>up</stem>
				<staff>1</staff>
			</note>
			<note default-x="148.37" default-y="-40">
				<pitch>
					<step>E</step>
					<octave>4</octave>
				</pitch>
				<duration>1</duration>
				<voice>1</voice>
				<type>quarter</type>
				<stem>up</stem>
				<staff>1</staff>
			</note>
			<backup>
				<duration>4</duration>
			</backup>
			<note default-x="24.49" default-y="-50">
				<pitch>
					<step>C</step>
					<octave>4</octave>
				</pitch>
				<duration>4</duration>
				<voice>2</voice>
				<type>whole</type>
				<staff>1</staff>
				<notations>
					<slur type="start" orientation="under" placement="below" bezier-x="28.184943" bezier-y="-20.771311" number="1"/>
				</notations>
			</note>
			<backup>
				<duration>4</duration>
			</backup>
			<note default-x="12.5" default-y="-142.98">
				<pitch>
					<step>D</step>
					<octave>3</octave>
				</pitch>
				<duration>1</duration>
				<voice>5</voice>
				<type>quarter</type>
				<stem>up</stem>
				<staff>2</staff>
				<notations>
					<slur type="stop" number="2" bezier-x="-23.175553" bezier-y="-17.522567"/>
				</notations>
			</note>
			<note default-x="57.79" default-y="-137.98">
				<pitch>
					<step>E</step>
					<octave>3</octave>
				</pitch>
				<duration>1</duration>
				<voice>5</voice>
				<type>quarter</type>
				<stem>up</stem>
				<staff>2</staff>
				<lyric number="1" default-x="6.5" default-y="-40.57" relative-y="-30">
					<syllabic>single</syllabic>
					<text>3</text>
				</lyric>
			</note>
			<note default-x="103.08" default-y="-142.98">
				<pitch>
					<step>D</step>
					<octave>3</octave>
				</pitch>
				<duration>1</duration>
				<voice>5</voice>
				<type>quarter</type>
				<stem>up</stem>
				<staff>2</staff>
			</note>
			<note default-x="148.37" default-y="-137.98">
				<pitch>
					<step>E</step>
					<octave>3</octave>
				</pitch>
				<duration>1</duration>
				<voice>5</voice>
				<type>quarter</type>
				<stem>up</stem>
				<staff>2</staff>
			</note>
			<backup>
				<duration>4</duration>
			</backup>
			<note default-x="24.49" default-y="-147.98">
				<pitch>
					<step>C</step>
					<octave>3</octave>
				</pitch>
				<duration>4</duration>
				<voice>6</voice>
				<type>whole</type>
				<staff>2</staff>
				<notations>
					<slur type="start" orientation="under" placement="below" bezier-x="27.795732" bezier-y="-21.273842" number="2"/>
				</notations>
				<lyric number="1" default-x="-5.5" default-y="-40.57" relative-y="-30">
					<syllabic>single</syllabic>
					<text>4</text>
				</lyric>
			</note>
		</measure>
		<measure number="3" width="195.46">
			<note default-x="12.5" default-y="-45">
				<pitch>
					<step>D</step>
					<octave>4</octave>
				</pitch>
				<duration>1</duration>
				<voice>1</voice>
				<type>quarter</type>
				<stem>up</stem>
				<staff>1</staff>
				<notations>
					<slur type="stop" number="1" bezier-x="-27.005414" bezier-y="-22.283311"/>
				</notations>
			</note>
			<note default-x="57.79" default-y="-40">
				<pitch>
					<step>E</step>
					<octave>4</octave>
				</pitch>
				<duration>1</duration>
				<voice>1</voice>
				<type>quarter</type>
				<stem>up</stem>
				<staff>1</staff>
			</note>
			<note default-x="103.08" default-y="-45">
				<pitch>
					<step>D</step>
					<octave>4</octave>
				</pitch>
				<duration>1</duration>
				<voice>1</voice>
				<type>quarter</type>
				<stem>up</stem>
				<staff>1</staff>
			</note>
			<note default-x="148.37" default-y="-40">
				<pitch>
					<step>E</step>
					<octave>4</octave>
				</pitch>
				<duration>1</duration>
				<voice>1</voice>
				<type>quarter</type>
				<stem>up</stem>
				<staff>1</staff>
			</note>
			<backup>
				<duration>4</duration>
			</backup>
			<note default-x="24.49" default-y="-50">
				<pitch>
					<step>C</step>
					<octave>4</octave>
				</pitch>
				<duration>4</duration>
				<voice>2</voice>
				<type>whole</type>
				<staff>1</staff>
				<notations>
					<slur type="start" orientation="under" placement="below" bezier-x="28.184943" bezier-y="-20.771311" number="1"/>
				</notations>
			</note>
			<backup>
				<duration>4</duration>
			</backup>
			<note default-x="12.5" default-y="-142.98">
				<pitch>
					<step>D</step>
					<octave>3</octave>
				</pitch>
				<duration>1</duration>
				<voice>5</voice>
				<type>quarter</type>
				<stem>up</stem>
				<staff>2</staff>
				<notations>
					<slur type="stop" number="2" bezier-x="-27.394626" bezier-y="-21.787922"/>
				</notations>
			</note>
			<note default-x="57.79" default-y="-137.98">
				<pitch>
					<step>E</step>
					<octave>3</octave>
				</pitch>
				<duration>1</duration>
				<voice>5</voice>
				<type>quarter</type>
				<stem>up</stem>
				<staff>2</staff>
			</note>
			<note default-x="103.08" default-y="-142.98">
				<pitch>
					<step>D</step>
					<octave>3</octave>
				</pitch>
				<duration>1</duration>
				<voice>5</voice>
				<type>quarter</type>
				<stem>up</stem>
				<staff>2</staff>
			</note>
			<note default-x="148.37" default-y="-137.98">
				<pitch>
					<step>E</step>
					<octave>3</octave>
				</pitch>
				<duration>1</duration>
				<voice>5</voice>
				<type>quarter</type>
				<stem>up</stem>
				<staff>2</staff>
			</note>
			<backup>
				<duration>4</duration>
			</backup>
			<note default-x="24.49" default-y="-147.98">
				<pitch>
					<step>C</step>
					<octave>3</octave>
				</pitch>
				<duration>4</duration>
				<voice>6</voice>
				<type>whole</type>
				<staff>2</staff>
				<notations>
					<slur type="start" orientation="under" placement="below" bezier-x="27.795732" bezier-y="-21.273842" number="2"/>
				</notations>
			</note>
		</measure>
		<measure number="4" width="195.46">
			<note default-x="12.5" default-y="-45">
				<pitch>
					<step>D</step>
					<octave>4</octave>
				</pitch>
				<duration>1</duration>
				<voice>1</voice>
				<type>quarter</type>
				<stem>up</stem>
				<staff>1</staff>
				<notations>
					<slur type="stop" number="1" bezier-x="-27.005414" bezier-y="-22.283311"/>
				</notations>
			</note>
			<note default-x="57.79" default-y="-35">
				<pitch>
					<step>F</step>
					<octave>4</octave>
				</pitch>
				<duration>1</duration>
				<voice>1</voice>
				<type>quarter</type>
				<stem>up</stem>
				<staff>1</staff>
			</note>
			<note default-x="103.08" default-y="-45">
				<pitch>
					<step>D</step>
					<octave>4</octave>
				</pitch>
				<duration>1</duration>
				<voice>1</voice>
				<type>quarter</type>
				<stem>up</stem>
				<staff>1</staff>
			</note>
			<note default-x="148.37" default-y="-35">
				<pitch>
					<step>F</step>
					<octave>4</octave>
				</pitch>
				<duration>1</duration>
				<voice>1</voice>
				<type>quarter</type>
				<stem>up</stem>
				<staff>1</staff>
			</note>
			<backup>
				<duration>4</duration>
			</backup>
			<note default-x="24.49" default-y="-50">
				<pitch>
					<step>C</step>
					<octave>4</octave>
				</pitch>
				<duration>4</duration>
				<voice>2</voice>
				<type>whole</type>
				<staff>1</staff>
				<notations>
					<slur type="start" orientation="under" placement="below" bezier-x="28.184943" bezier-y="-20.771311" number="1"/>
				</notations>
			</note>
			<backup>
				<duration>4</duration>
			</backup>
			<note default-x="12.5" default-y="-142.98">
				<pitch>
					<step>D</step>
					<octave>3</octave>
				</pitch>
				<duration>1</duration>
				<voice>5</voice>
				<type>quarter</type>
				<stem>up</stem>
				<staff>2</staff>
				<notations>
					<slur type="stop" number="2" bezier-x="-27.394626" bezier-y="-21.787922"/>
				</notations>
			</note>
			<note default-x="57.79" default-y="-132.98">
				<pitch>
					<step>F</step>
					<octave>3</octave>
				</pitch>
				<duration>1</duration>
				<voice>5</voice>
				<type>quarter</type>
				<stem>up</stem>
				<staff>2</staff>
			</note>
			<note default-x="103.08" default-y="-142.98">
				<pitch>
					<step>D</step>
					<octave>3</octave>
				</pitch>
				<duration>1</duration>
				<voice>5</voice>
				<type>quarter</type>
				<stem>up</stem>
				<staff>2</staff>
			</note>
			<note default-x="148.37" default-y="-132.98">
				<pitch>
					<step>F</step>
					<octave>3</octave>
				</pitch>
				<duration>1</duration>
				<voice>5</voice>
				<type>quarter</type>
				<stem>up</stem>
				<staff>2</staff>
			</note>
			<backup>
				<duration>4</duration>
			</backup>
			<note default-x="24.49" default-y="-147.98">
				<pitch>
					<step>C</step>
					<octave>3</octave>
				</pitch>
				<duration>4</duration>
				<voice>6</voice>
				<type>whole</type>
				<staff>2</staff>
				<notations>
					<slur type="start" orientation="under" placement="below" bezier-x="27.795732" bezier-y="-21.273842" number="2"/>
				</notations>
			</note>
		</measure>
		<measure number="5" width="195.46">
			<note default-x="12.5" default-y="-45">
				<pitch>
					<step>D</step>
					<octave>4</octave>
				</pitch>
				<duration>1</duration>
				<voice>1</voice>
				<type>quarter</type>
				<stem>up</stem>
				<staff>1</staff>
				<notations>
					<slur type="stop" number="1" bezier-x="-27.005414" bezier-y="-22.283311"/>
				</notations>
			</note>
			<note default-x="57.79" default-y="-35">
				<pitch>
					<step>F</step>
					<octave>4</octave>
				</pitch>
				<duration>1</duration>
				<voice>1</voice>
				<type>quarter</type>
				<stem>up</stem>
				<staff>1</staff>
			</note>
			<note default-x="103.08" default-y="-45">
				<pitch>
					<step>D</step>
					<octave>4</octave>
				</pitch>
				<duration>1</duration>
				<voice>1</voice>
				<type>quarter</type>
				<stem>up</stem>
				<staff>1</staff>
			</note>
			<note default-x="148.37" default-y="-35">
				<pitch>
					<step>F</step>
					<octave>4</octave>
				</pitch>
				<duration>1</duration>
				<voice>1</voice>
				<type>quarter</type>
				<stem>up</stem>
				<staff>1</staff>
			</note>
			<backup>
				<duration>4</duration>
			</backup>
			<note default-x="24.49" default-y="-50">
				<pitch>
					<step>C</step>
					<octave>4</octave>
				</pitch>
				<duration>4</duration>
				<voice>2</voice>
				<type>whole</type>
				<staff>1</staff>
				<notations>
					<slur type="start" orientation="under" placement="below" bezier-x="28.184943" bezier-y="-20.771311" number="1"/>
				</notations>
			</note>
			<backup>
				<duration>4</duration>
			</backup>
			<note default-x="12.5" default-y="-142.98">
				<pitch>
					<step>D</step>
					<octave>3</octave>
				</pitch>
				<duration>1</duration>
				<voice>5</voice>
				<type>quarter</type>
				<stem>up</stem>
				<staff>2</staff>
				<notations>
					<slur type="stop" number="2" bezier-x="-27.394626" bezier-y="-21.787922"/>
				</notations>
			</note>
			<note default-x="57.79" default-y="-132.98">
				<pitch>
					<step>F</step>
					<octave>3</octave>
				</pitch>
				<duration>1</duration>
				<voice>5</voice>
				<type>quarter</type>
				<stem>up</stem>
				<staff>2</staff>
			</note>
			<note default-x="103.08" default-y="-142.98">
				<pitch>
					<step>D</step>
					<octave>3</octave>
				</pitch>
				<duration>1</duration>
				<voice>5</voice>
				<type>quarter</type>
				<stem>up</stem>
				<staff>2</staff>
			</note>
			<note default-x="148.37" default-y="-132.98">
				<pitch>
					<step>F</step>
					<octave>3</octave>
				</pitch>
				<duration>1</duration>
				<voice>5</voice>
				<type>quarter</type>
				<stem>up</stem>
				<staff>2</staff>
			</note>
			<backup>
				<duration>4</duration>
			</backup>
			<note default-x="24.49" default-y="-147.98">
				<pitch>
					<step>C</step>
					<octave>3</octave>
				</pitch>
				<duration>4</duration>
				<voice>6</voice>
				<type>whole</type>
				<staff>2</staff>
				<notations>
					<slur type="start" orientation="under" placement="below" bezier-x="27.795732" bezier-y="-21.273842" number="2"/>
				</notations>
			</note>
		</measure>
		<measure number="6" width="195.46">
			<note default-x="12.5" default-y="-45">
				<pitch>
					<step>D</step>
					<octave>4</octave>
				</pitch>
				<duration>1</duration>
				<voice>1</voice>
				<type>quarter</type>
				<stem>up</stem>
				<staff>1</staff>
				<notations>
					<slur type="stop" number="1" bezier-x="-27.005414" bezier-y="-22.283311"/>
				</notations>
			</note>
			<note default-x="57.79" default-y="-30">
				<pitch>
					<step>G</step>
					<octave>4</octave>
				</pitch>
				<duration>1</duration>
				<voice>1</voice>
				<type>quarter</type>
				<stem>up</stem>
				<staff>1</staff>
			</note>
			<note default-x="103.08" default-y="-45">
				<pitch>
					<step>D</step>
					<octave>4</octave>
				</pitch>
				<duration>1</duration>
				<voice>1</voice>
				<type>quarter</type>
				<stem>up</stem>
				<staff>1</staff>
			</note>
			<note default-x="148.37" default-y="-30">
				<pitch>
					<step>G</step>
					<octave>4</octave>
				</pitch>
				<duration>1</duration>
				<voice>1</voice>
				<type>quarter</type>
				<stem>up</stem>
				<staff>1</staff>
			</note>
			<backup>
				<duration>4</duration>
			</backup>
			<note default-x="24.49" default-y="-50">
				<pitch>
					<step>C</step>
					<octave>4</octave>
				</pitch>
				<duration>4</duration>
				<voice>2</voice>
				<type>whole</type>
				<staff>1</staff>
				<notations>
					<slur type="start" bezier-x="31.781161" bezier-y="-20.612987" number="1"/>
				</notations>
			</note>
			<backup>
				<duration>4</duration>
			</backup>
			<note default-x="12.5" default-y="-142.98">
				<pitch>
					<step>D</step>
					<octave>3</octave>
				</pitch>
				<duration>1</duration>
				<voice>5</voice>
				<type>quarter</type>
				<stem>up</stem>
				<staff>2</staff>
				<notations>
					<slur type="stop" number="2" bezier-x="-27.394626" bezier-y="-21.787922"/>
				</notations>
			</note>
			<note default-x="57.79" default-y="-127.98">
				<pitch>
					<step>G</step>
					<octave>3</octave>
				</pitch>
				<duration>1</duration>
				<voice>5</voice>
				<type>quarter</type>
				<stem>up</stem>
				<staff>2</staff>
			</note>
			<note default-x="103.08" default-y="-142.98">
				<pitch>
					<step>D</step>
					<octave>3</octave>
				</pitch>
				<duration>1</duration>
				<voice>5</voice>
				<type>quarter</type>
				<stem>up</stem>
				<staff>2</staff>
			</note>
			<note default-x="148.37" default-y="-127.98">
				<pitch>
					<step>G</step>
					<octave>3</octave>
				</pitch>
				<duration>1</duration>
				<voice>5</voice>
				<type>quarter</type>
				<stem>up</stem>
				<staff>2</staff>
			</note>
			<backup>
				<duration>4</duration>
			</backup>
			<note default-x="24.49" default-y="-147.98">
				<pitch>
					<step>C</step>
					<octave>3</octave>
				</pitch>
				<duration>4</duration>
				<voice>6</voice>
				<type>whole</type>
				<staff>2</staff>
				<notations>
					<slur type="start" orientation="under" placement="below" bezier-x="31.781161" bezier-y="-20.612987" number="2"/>
				</notations>
			</note>
		</measure>
		<measure number="7" width="241.83">
			<print new-system="yes">
				<system-layout>
					<system-margins>
						<left-margin>0</left-margin>
						<right-margin>0</right-margin>
					</system-margins>
					<system-distance>124.42</system-distance>
				</system-layout>
				<staff-layout number="2">
					<staff-distance>58.05</staff-distance>
				</staff-layout>
			</print>
			<note default-x="60.86" default-y="-45">
				<pitch>
					<step>D</step>
					<octave>4</octave>
				</pitch>
				<duration>1</duration>
				<voice>1</voice>
				<type>quarter</type>
				<stem>up</stem>
				<staff>1</staff>
				<notations>
					<slur type="start" orientation="under" placement="below" bezier-x="28.292665" bezier-y="-22.775029" number="3"/>
				</notations>
			</note>
			<note default-x="105.65" default-y="-30">
				<pitch>
					<step>G</step>
					<octave>4</octave>
				</pitch>
				<duration>1</duration>
				<voice>1</voice>
				<type>quarter</type>
				<stem>up</stem>
				<staff>1</staff>
			</note>
			<note default-x="150.44" default-y="-45">
				<pitch>
					<step>D</step>
					<octave>4</octave>
				</pitch>
				<duration>1</duration>
				<voice>1</voice>
				<type>quarter</type>
				<stem>up</stem>
				<staff>1</staff>
			</note>
			<note default-x="195.24" default-y="-30">
				<pitch>
					<step>G</step>
					<octave>4</octave>
				</pitch>
				<duration>1</duration>
				<voice>1</voice>
				<type>quarter</type>
				<stem>up</stem>
				<staff>1</staff>
			</note>
			<backup>
				<duration>4</duration>
			</backup>
			<note default-x="72.85" default-y="-50">
				<pitch>
					<step>C</step>
					<octave>4</octave>
				</pitch>
				<duration>4</duration>
				<voice>2</voice>
				<type>whole</type>
				<staff>1</staff>
				<notations>
					<slur type="stop" number="1" bezier-x="-8.004256" bezier-y="-9.972749"/>
				</notations>
			</note>
			<backup>
				<duration>4</duration>
			</backup>
			<note default-x="60.86" default-y="-118.05">
				<pitch>
					<step>D</step>
					<octave>3</octave>
				</pitch>
				<duration>1</duration>
				<voice>5</voice>
				<type>quarter</type>
				<stem>up</stem>
				<staff>2</staff>
			</note>
			<note default-x="105.65" default-y="-103.05">
				<pitch>
					<step>G</step>
					<octave>3</octave>
				</pitch>
				<duration>1</duration>
				<voice>5</voice>
				<type>quarter</type>
				<stem>up</stem>
				<staff>2</staff>
			</note>
			<note default-x="150.44" default-y="-118.05">
				<pitch>
					<step>D</step>
					<octave>3</octave>
				</pitch>
				<duration>1</duration>
				<voice>5</voice>
				<type>quarter</type>
				<stem>up</stem>
				<staff>2</staff>
			</note>
			<note default-x="195.24" default-y="-103.05">
				<pitch>
					<step>G</step>
					<octave>3</octave>
				</pitch>
				<duration>1</duration>
				<voice>5</voice>
				<type>quarter</type>
				<stem>up</stem>
				<staff>2</staff>
			</note>
			<backup>
				<duration>4</duration>
			</backup>
			<note default-x="72.85" default-y="-123.05">
				<pitch>
					<step>C</step>
					<octave>3</octave>
				</pitch>
				<duration>4</duration>
				<voice>6</voice>
				<type>whole</type>
				<staff>2</staff>
				<notations>
					<slur type="stop" number="2" bezier-x="0" bezier-y="-12.59992"/>
					<slur type="start" orientation="under" placement="below" bezier-x="35.47719" bezier-y="-21.142672" number="1"/>
				</notations>
			</note>
		</measure>
		<measure number="8" width="194.43">
			<note default-x="13.46" default-y="-30">
				<pitch>
					<step>G</step>
					<octave>4</octave>
				</pitch>
				<duration>1</duration>
				<voice>1</voice>
				<type>quarter</type>
				<stem>up</stem>
				<staff>1</staff>
			</note>
			<note default-x="58.26" default-y="-35">
				<pitch>
					<step>F</step>
					<octave>4</octave>
				</pitch>
				<duration>1</duration>
				<voice>1</voice>
				<type>quarter</type>
				<stem>up</stem>
				<staff>1</staff>
			</note>
			<note default-x="103.05" default-y="-30">
				<pitch>
					<step>G</step>
					<octave>4</octave>
				</pitch>
				<duration>1</duration>
				<voice>1</voice>
				<type>quarter</type>
				<stem>up</stem>
				<staff>1</staff>
			</note>
			<note default-x="147.84" default-y="-35">
				<pitch>
					<step>F</step>
					<octave>4</octave>
				</pitch>
				<duration>1</duration>
				<voice>1</voice>
				<type>quarter</type>
				<stem>up</stem>
				<staff>1</staff>
			</note>
			<backup>
				<duration>4</duration>
			</backup>
			<note default-x="12.5" default-y="-50">
				<pitch>
					<step>C</step>
					<octave>4</octave>
				</pitch>
				<duration>4</duration>
				<tie type="start"/>
				<voice>2</voice>
				<type>whole</type>
				<staff>1</staff>
				<notations>
					<tied type="start" orientation="under" placement="below"/>
					<slur type="stop" number="3" bezier-x="-29.44589" bezier-y="-21.263029"/>
				</notations>
			</note>
			<backup>
				<duration>4</duration>
			</backup>
			<note default-x="13.46" default-y="-103.05">
				<pitch>
					<step>G</step>
					<octave>3</octave>
				</pitch>
				<duration>1</duration>
				<voice>5</voice>
				<type>quarter</type>
				<stem>up</stem>
				<staff>2</staff>
			</note>
			<note default-x="58.26" default-y="-108.05">
				<pitch>
					<step>F</step>
					<octave>3</octave>
				</pitch>
				<duration>1</duration>
				<voice>5</voice>
				<type>quarter</type>
				<stem>up</stem>
				<staff>2</staff>
			</note>
			<note default-x="103.05" default-y="-103.05">
				<pitch>
					<step>G</step>
					<octave>3</octave>
				</pitch>
				<duration>1</duration>
				<voice>5</voice>
				<type>quarter</type>
				<stem>up</stem>
				<staff>2</staff>
			</note>
			<note default-x="147.84" default-y="-108.05">
				<pitch>
					<step>F</step>
					<octave>3</octave>
				</pitch>
				<duration>1</duration>
				<voice>5</voice>
				<type>quarter</type>
				<stem>up</stem>
				<staff>2</staff>
			</note>
			<backup>
				<duration>4</duration>
			</backup>
			<note default-x="12.5" default-y="-123.05">
				<pitch>
					<step>C</step>
					<octave>3</octave>
				</pitch>
				<duration>4</duration>
				<tie type="start"/>
				<voice>6</voice>
				<type>whole</type>
				<staff>2</staff>
				<notations>
					<tied type="start" orientation="under" placement="below"/>
					<slur type="stop" number="1" bezier-x="-35.47719" bezier-y="-21.142672"/>
				</notations>
			</note>
		</measure>
		<measure number="9" width="194.43">
			<note default-x="13.46" default-y="-30">
				<pitch>
					<step>G</step>
					<octave>4</octave>
				</pitch>
				<duration>1</duration>
				<voice>1</voice>
				<type>quarter</type>
				<stem>up</stem>
				<staff>1</staff>
			</note>
			<note default-x="58.26" default-y="-35">
				<pitch>
					<step>F</step>
					<octave>4</octave>
				</pitch>
				<duration>1</duration>
				<voice>1</voice>
				<type>quarter</type>
				<stem>up</stem>
				<staff>1</staff>
			</note>
			<note default-x="103.05" default-y="-30">
				<pitch>
					<step>G</step>
					<octave>4</octave>
				</pitch>
				<duration>1</duration>
				<voice>1</voice>
				<type>quarter</type>
				<stem>up</stem>
				<staff>1</staff>
			</note>
			<note default-x="147.84" default-y="-35">
				<pitch>
					<step>F</step>
					<octave>4</octave>
				</pitch>
				<duration>1</duration>
				<voice>1</voice>
				<type>quarter</type>
				<stem>up</stem>
				<staff>1</staff>
			</note>
			<backup>
				<duration>4</duration>
			</backup>
			<note default-x="12.5" default-y="-50">
				<pitch>
					<step>C</step>
					<octave>4</octave>
				</pitch>
				<duration>4</duration>
				<tie type="stop"/>
				<tie type="start"/>
				<voice>2</voice>
				<type>whole</type>
				<staff>1</staff>
				<notations>
					<tied type="stop"/>
					<tied type="start" orientation="under" placement="below"/>
				</notations>
			</note>
			<backup>
				<duration>4</duration>
			</backup>
			<note default-x="13.46" default-y="-103.05">
				<pitch>
					<step>G</step>
					<octave>3</octave>
				</pitch>
				<duration>1</duration>
				<voice>5</voice>
				<type>quarter</type>
				<stem>up</stem>
				<staff>2</staff>
			</note>
			<note default-x="58.26" default-y="-108.05">
				<pitch>
					<step>F</step>
					<octave>3</octave>
				</pitch>
				<duration>1</duration>
				<voice>5</voice>
				<type>quarter</type>
				<stem>up</stem>
				<staff>2</staff>
			</note>
			<note default-x="103.05" default-y="-103.05">
				<pitch>
					<step>G</step>
					<octave>3</octave>
				</pitch>
				<duration>1</duration>
				<voice>5</voice>
				<type>quarter</type>
				<stem>up</stem>
				<staff>2</staff>
			</note>
			<note default-x="147.84" default-y="-108.05">
				<pitch>
					<step>F</step>
					<octave>3</octave>
				</pitch>
				<duration>1</duration>
				<voice>5</voice>
				<type>quarter</type>
				<stem>up</stem>
				<staff>2</staff>
			</note>
			<backup>
				<duration>4</duration>
			</backup>
			<note default-x="12.5" default-y="-123.05">
				<pitch>
					<step>C</step>
					<octave>3</octave>
				</pitch>
				<duration>4</duration>
				<tie type="stop"/>
				<tie type="start"/>
				<voice>6</voice>
				<type>whole</type>
				<staff>2</staff>
				<notations>
					<tied type="stop"/>
					<tied type="start" orientation="under" placement="below"/>
				</notations>
			</note>
		</measure>
		<measure number="10" width="194.43">
			<note default-x="13.46" default-y="-30">
				<pitch>
					<step>G</step>
					<octave>4</octave>
				</pitch>
				<duration>1</duration>
				<voice>1</voice>
				<type>quarter</type>
				<stem>up</stem>
				<staff>1</staff>
			</note>
			<note default-x="58.26" default-y="-40">
				<pitch>
					<step>E</step>
					<octave>4</octave>
				</pitch>
				<duration>1</duration>
				<voice>1</voice>
				<type>quarter</type>
				<stem>up</stem>
				<staff>1</staff>
			</note>
			<note default-x="103.05" default-y="-30">
				<pitch>
					<step>G</step>
					<octave>4</octave>
				</pitch>
				<duration>1</duration>
				<voice>1</voice>
				<type>quarter</type>
				<stem>up</stem>
				<staff>1</staff>
			</note>
			<note default-x="147.84" default-y="-40">
				<pitch>
					<step>E</step>
					<octave>4</octave>
				</pitch>
				<duration>1</duration>
				<voice>1</voice>
				<type>quarter</type>
				<stem>up</stem>
				<staff>1</staff>
			</note>
			<backup>
				<duration>4</duration>
			</backup>
			<note default-x="12.5" default-y="-50">
				<pitch>
					<step>C</step>
					<octave>4</octave>
				</pitch>
				<duration>4</duration>
				<tie type="stop"/>
				<tie type="start"/>
				<voice>2</voice>
				<type>whole</type>
				<staff>1</staff>
				<notations>
					<tied type="stop"/>
					<tied type="start" orientation="under" placement="below"/>
				</notations>
			</note>
			<backup>
				<duration>4</duration>
			</backup>
			<note default-x="13.46" default-y="-103.05">
				<pitch>
					<step>G</step>
					<octave>3</octave>
				</pitch>
				<duration>1</duration>
				<voice>5</voice>
				<type>quarter</type>
				<stem>up</stem>
				<staff>2</staff>
			</note>
			<note default-x="58.26" default-y="-113.05">
				<pitch>
					<step>E</step>
					<octave>3</octave>
				</pitch>
				<duration>1</duration>
				<voice>5</voice>
				<type>quarter</type>
				<stem>up</stem>
				<staff>2</staff>
			</note>
			<note default-x="103.05" default-y="-103.05">
				<pitch>
					<step>G</step>
					<octave>3</octave>
				</pitch>
				<duration>1</duration>
				<voice>5</voice>
				<type>quarter</type>
				<stem>up</stem>
				<staff>2</staff>
			</note>
			<note default-x="147.84" default-y="-113.05">
				<pitch>
					<step>E</step>
					<octave>3</octave>
				</pitch>
				<duration>1</duration>
				<voice>5</voice>
				<type>quarter</type>
				<stem>up</stem>
				<staff>2</staff>
			</note>
			<backup>
				<duration>4</duration>
			</backup>
			<note default-x="12.5" default-y="-123.05">
				<pitch>
					<step>C</step>
					<octave>3</octave>
				</pitch>
				<duration>4</duration>
				<tie type="stop"/>
				<tie type="start"/>
				<voice>6</voice>
				<type>whole</type>
				<staff>2</staff>
				<notations>
					<tied type="stop"/>
					<tied type="start" orientation="under" placement="below"/>
				</notations>
			</note>
		</measure>
		<measure number="11" width="194.43">
			<note default-x="13.46" default-y="-30">
				<pitch>
					<step>G</step>
					<octave>4</octave>
				</pitch>
				<duration>1</duration>
				<voice>1</voice>
				<type>quarter</type>
				<stem>up</stem>
				<staff>1</staff>
			</note>
			<note default-x="58.26" default-y="-40">
				<pitch>
					<step>E</step>
					<octave>4</octave>
				</pitch>
				<duration>1</duration>
				<voice>1</voice>
				<type>quarter</type>
				<stem>up</stem>
				<staff>1</staff>
			</note>
			<note default-x="103.05" default-y="-30">
				<pitch>
					<step>G</step>
					<octave>4</octave>
				</pitch>
				<duration>1</duration>
				<voice>1</voice>
				<type>quarter</type>
				<stem>up</stem>
				<staff>1</staff>
			</note>
			<note default-x="147.84" default-y="-40">
				<pitch>
					<step>E</step>
					<octave>4</octave>
				</pitch>
				<duration>1</duration>
				<voice>1</voice>
				<type>quarter</type>
				<stem>up</stem>
				<staff>1</staff>
			</note>
			<backup>
				<duration>4</duration>
			</backup>
			<note default-x="12.5" default-y="-50">
				<pitch>
					<step>C</step>
					<octave>4</octave>
				</pitch>
				<duration>4</duration>
				<tie type="stop"/>
				<tie type="start"/>
				<voice>2</voice>
				<type>whole</type>
				<staff>1</staff>
				<notations>
					<tied type="stop"/>
					<tied type="start" orientation="under" placement="below"/>
				</notations>
			</note>
			<backup>
				<duration>4</duration>
			</backup>
			<note default-x="13.46" default-y="-103.05">
				<pitch>
					<step>G</step>
					<octave>3</octave>
				</pitch>
				<duration>1</duration>
				<voice>5</voice>
				<type>quarter</type>
				<stem>up</stem>
				<staff>2</staff>
			</note>
			<note default-x="58.26" default-y="-113.05">
				<pitch>
					<step>E</step>
					<octave>3</octave>
				</pitch>
				<duration>1</duration>
				<voice>5</voice>
				<type>quarter</type>
				<stem>up</stem>
				<staff>2</staff>
			</note>
			<note default-x="103.05" default-y="-103.05">
				<pitch>
					<step>G</step>
					<octave>3</octave>
				</pitch>
				<duration>1</duration>
				<voice>5</voice>
				<type>quarter</type>
				<stem>up</stem>
				<staff>2</staff>
			</note>
			<note default-x="147.84" default-y="-113.05">
				<pitch>
					<step>E</step>
					<octave>3</octave>
				</pitch>
				<duration>1</duration>
				<voice>5</voice>
				<type>quarter</type>
				<stem>up</stem>
				<staff>2</staff>
			</note>
			<backup>
				<duration>4</duration>
			</backup>
			<note default-x="12.5" default-y="-123.05">
				<pitch>
					<step>C</step>
					<octave>3</octave>
				</pitch>
				<duration>4</duration>
				<tie type="stop"/>
				<tie type="start"/>
				<voice>6</voice>
				<type>whole</type>
				<staff>2</staff>
				<notations>
					<tied type="stop"/>
					<tied type="start" orientation="under" placement="below"/>
				</notations>
			</note>
		</measure>
		<measure number="12" width="194.43">
			<note default-x="13.46" default-y="-30">
				<pitch>
					<step>G</step>
					<octave>4</octave>
				</pitch>
				<duration>1</duration>
				<voice>1</voice>
				<type>quarter</type>
				<stem>up</stem>
				<staff>1</staff>
			</note>
			<note default-x="58.26" default-y="-45">
				<pitch>
					<step>D</step>
					<octave>4</octave>
				</pitch>
				<duration>1</duration>
				<voice>1</voice>
				<type>quarter</type>
				<stem>up</stem>
				<staff>1</staff>
			</note>
			<note default-x="103.05" default-y="-30">
				<pitch>
					<step>G</step>
					<octave>4</octave>
				</pitch>
				<duration>1</duration>
				<voice>1</voice>
				<type>quarter</type>
				<stem>up</stem>
				<staff>1</staff>
			</note>
			<note default-x="147.84" default-y="-45">
				<pitch>
					<step>D</step>
					<octave>4</octave>
				</pitch>
				<duration>1</duration>
				<voice>1</voice>
				<type>quarter</type>
				<stem>up</stem>
				<staff>1</staff>
			</note>
			<backup>
				<duration>4</duration>
			</backup>
			<note default-x="12.5" default-y="-50">
				<pitch>
					<step>C</step>
					<octave>4</octave>
				</pitch>
				<duration>4</duration>
				<tie type="stop"/>
				<tie type="start"/>
				<voice>2</voice>
				<type>whole</type>
				<staff>1</staff>
				<notations>
					<tied type="stop"/>
					<tied type="start" orientation="under" placement="below"/>
				</notations>
			</note>
			<backup>
				<duration>4</duration>
			</backup>
			<note default-x="13.46" default-y="-103.05">
				<pitch>
					<step>G</step>
					<octave>3</octave>
				</pitch>
				<duration>1</duration>
				<voice>5</voice>
				<type>quarter</type>
				<stem>up</stem>
				<staff>2</staff>
			</note>
			<note default-x="58.26" default-y="-118.05">
				<pitch>
					<step>D</step>
					<octave>3</octave>
				</pitch>
				<duration>1</duration>
				<voice>5</voice>
				<type>quarter</type>
				<stem>up</stem>
				<staff>2</staff>
			</note>
			<note default-x="103.05" default-y="-103.05">
				<pitch>
					<step>G</step>
					<octave>3</octave>
				</pitch>
				<duration>1</duration>
				<voice>5</voice>
				<type>quarter</type>
				<stem>up</stem>
				<staff>2</staff>
			</note>
			<note default-x="147.84" default-y="-118.05">
				<pitch>
					<step>D</step>
					<octave>3</octave>
				</pitch>
				<duration>1</duration>
				<voice>5</voice>
				<type>quarter</type>
				<stem>up</stem>
				<staff>2</staff>
			</note>
			<backup>
				<duration>4</duration>
			</backup>
			<note default-x="12.5" default-y="-123.05">
				<pitch>
					<step>C</step>
					<octave>3</octave>
				</pitch>
				<duration>4</duration>
				<tie type="stop"/>
				<tie type="start"/>
				<voice>6</voice>
				<type>whole</type>
				<staff>2</staff>
				<notations>
					<tied type="stop"/>
					<tied type="start" orientation="under" placement="below"/>
				</notations>
			</note>
		</measure>
		<measure number="13" width="255.92">
			<print new-system="yes">
				<system-layout>
					<system-margins>
						<left-margin>0</left-margin>
						<right-margin>0</right-margin>
					</system-margins>
					<system-distance>124.42</system-distance>
				</system-layout>
				<staff-layout number="2">
					<staff-distance>68.39</staff-distance>
				</staff-layout>
			</print>
			<note default-x="60.86" default-y="-30">
				<pitch>
					<step>G</step>
					<octave>4</octave>
				</pitch>
				<duration>1</duration>
				<voice>1</voice>
				<type>quarter</type>
				<stem>up</stem>
				<staff>1</staff>
			</note>
			<note default-x="109.17" default-y="-45">
				<pitch>
					<step>D</step>
					<octave>4</octave>
				</pitch>
				<duration>1</duration>
				<voice>1</voice>
				<type>quarter</type>
				<stem>up</stem>
				<staff>1</staff>
			</note>
			<note default-x="157.49" default-y="-30">
				<pitch>
					<step>G</step>
					<octave>4</octave>
				</pitch>
				<duration>1</duration>
				<voice>1</voice>
				<type>quarter</type>
				<stem>up</stem>
				<staff>1</staff>
			</note>
			<note default-x="205.8" default-y="-45">
				<pitch>
					<step>D</step>
					<octave>4</octave>
				</pitch>
				<duration>1</duration>
				<voice>1</voice>
				<type>quarter</type>
				<stem>up</stem>
				<staff>1</staff>
			</note>
			<backup>
				<duration>4</duration>
			</backup>
			<note default-x="59.89" default-y="-50">
				<pitch>
					<step>C</step>
					<octave>4</octave>
				</pitch>
				<duration>4</duration>
				<tie type="stop"/>
				<voice>2</voice>
				<type>whole</type>
				<staff>1</staff>
				<notations>
					<tied type="stop"/>
				</notations>
			</note>
			<backup>
				<duration>4</duration>
			</backup>
			<note default-x="60.86" default-y="-113.39">
				<pitch>
					<step>G</step>
					<octave>3</octave>
				</pitch>
				<duration>1</duration>
				<voice>5</voice>
				<type>quarter</type>
				<stem>up</stem>
				<staff>2</staff>
			</note>
			<note default-x="109.17" default-y="-128.39">
				<pitch>
					<step>D</step>
					<octave>3</octave>
				</pitch>
				<duration>1</duration>
				<voice>5</voice>
				<type>quarter</type>
				<stem>up</stem>
				<staff>2</staff>
			</note>
			<note default-x="157.49" default-y="-113.39">
				<pitch>
					<step>G</step>
					<octave>3</octave>
				</pitch>
				<duration>1</duration>
				<voice>5</voice>
				<type>quarter</type>
				<stem>up</stem>
				<staff>2</staff>
			</note>
			<note default-x="205.8" default-y="-128.39">
				<pitch>
					<step>D</step>
					<octave>3</octave>
				</pitch>
				<duration>1</duration>
				<voice>5</voice>
				<type>quarter</type>
				<stem>up</stem>
				<staff>2</staff>
			</note>
			<backup>
				<duration>4</duration>
			</backup>
			<note default-x="59.89" default-y="-133.39">
				<pitch>
					<step>C</step>
					<octave>3</octave>
				</pitch>
				<duration>4</duration>
				<tie type="stop"/>
				<voice>6</voice>
				<type>whole</type>
				<staff>2</staff>
				<notations>
					<tied type="stop"/>
				</notations>
			</note>
		</measure>
		<measure number="14" width="123.97">
			<note default-x="12.5" default-y="-30">
				<pitch>
					<step>G</step>
					<octave>4</octave>
				</pitch>
				<duration>4</duration>
				<tie type="start"/>
				<voice>1</voice>
				<type>whole</type>
				<staff>1</staff>
				<notations>
					<tied type="start" orientation="over" placement="above"/>
				</notations>
				<lyric number="1" default-x="5.53" default-y="-49.38" relative-y="-30">
					<syllabic>single</syllabic>
					<text>5</text>
				</lyric>
			</note>
			<backup>
				<duration>4</duration>
			</backup>
			<note default-x="12.5" default-y="-113.39">
				<pitch>
					<step>G</step>
					<octave>3</octave>
				</pitch>
				<duration>4</duration>
				<tie type="start"/>
				<voice>5</voice>
				<type>whole</type>
				<staff>2</staff>
				<notations>
					<tied type="start" orientation="over" placement="above"/>
				</notations>
				<lyric number="1" default-x="7.46" default-y="-40" relative-y="-30">
					<syllabic>single</syllabic>
					<text>1</text>
				</lyric>
			</note>
		</measure>
		<measure number="15" width="208.53">
			<note default-x="12.5" default-y="-30">
				<pitch>
					<step>G</step>
					<octave>4</octave>
				</pitch>
				<duration>4</duration>
				<tie type="stop"/>
				<tie type="start"/>
				<voice>1</voice>
				<type>whole</type>
				<staff>1</staff>
				<notations>
					<tied type="stop"/>
					<tied type="start" orientation="over" placement="above"/>
				</notations>
			</note>
			<backup>
				<duration>4</duration>
			</backup>
			<note default-x="13.46" default-y="-50">
				<pitch>
					<step>C</step>
					<octave>4</octave>
				</pitch>
				<duration>1</duration>
				<voice>2</voice>
				<type>quarter</type>
				<stem>down</stem>
				<staff>1</staff>
				<lyric number="1" default-x="6.5" default-y="-49.38" relative-y="-30">
					<syllabic>single</syllabic>
					<text>1</text>
				</lyric>
			</note>
			<note default-x="61.78" default-y="-45">
				<pitch>
					<step>D</step>
					<octave>4</octave>
				</pitch>
				<duration>1</duration>
				<voice>2</voice>
				<type>quarter</type>
				<stem>down</stem>
				<staff>1</staff>
				<lyric number="1" default-x="6.5" default-y="-49.38" relative-y="-30">
					<syllabic>single</syllabic>
					<text>2</text>
				</lyric>
			</note>
			<note default-x="110.09" default-y="-50">
				<pitch>
					<step>C</step>
					<octave>4</octave>
				</pitch>
				<duration>1</duration>
				<voice>2</voice>
				<type>quarter</type>
				<stem>down</stem>
				<staff>1</staff>
			</note>
			<note default-x="158.41" default-y="-45">
				<pitch>
					<step>D</step>
					<octave>4</octave>
				</pitch>
				<duration>1</duration>
				<voice>2</voice>
				<type>quarter</type>
				<stem>down</stem>
				<staff>1</staff>
			</note>
			<backup>
				<duration>4</duration>
			</backup>
			<note default-x="12.5" default-y="-113.39">
				<pitch>
					<step>G</step>
					<octave>3</octave>
				</pitch>
				<duration>4</duration>
				<tie type="stop"/>
				<tie type="start"/>
				<voice>5</voice>
				<type>whole</type>
				<staff>2</staff>
				<notations>
					<tied type="stop"/>
					<tied type="start" orientation="over" placement="above"/>
				</notations>
			</note>
			<backup>
				<duration>4</duration>
			</backup>
			<note default-x="13.46" default-y="-133.39">
				<pitch>
					<step>C</step>
					<octave>3</octave>
				</pitch>
				<duration>1</duration>
				<voice>6</voice>
				<type>quarter</type>
				<stem>down</stem>
				<staff>2</staff>
				<lyric number="1" default-x="6.5" default-y="-40" relative-y="-30">
					<syllabic>single</syllabic>
					<text>5</text>
				</lyric>
			</note>
			<note default-x="61.78" default-y="-128.39">
				<pitch>
					<step>D</step>
					<octave>3</octave>
				</pitch>
				<duration>1</duration>
				<voice>6</voice>
				<type>quarter</type>
				<stem>down</stem>
				<staff>2</staff>
				<lyric number="1" default-x="6.5" default-y="-40" relative-y="-30">
					<syllabic>single</syllabic>
					<text>4</text>
				</lyric>
			</note>
			<note default-x="110.09" default-y="-133.39">
				<pitch>
					<step>C</step>
					<octave>3</octave>
				</pitch>
				<duration>1</duration>
				<voice>6</voice>
				<type>quarter</type>
				<stem>down</stem>
				<staff>2</staff>
			</note>
			<note default-x="158.41" default-y="-128.39">
				<pitch>
					<step>D</step>
					<octave>3</octave>
				</pitch>
				<duration>1</duration>
				<voice>6</voice>
				<type>quarter</type>
				<stem>down</stem>
				<staff>2</staff>
			</note>
		</measure>
		<measure number="16" width="208.53">
			<note default-x="12.5" default-y="-30">
				<pitch>
					<step>G</step>
					<octave>4</octave>
				</pitch>
				<duration>4</duration>
				<tie type="stop"/>
				<tie type="start"/>
				<voice>1</voice>
				<type>whole</type>
				<staff>1</staff>
				<notations>
					<tied type="stop"/>
					<tied type="start" orientation="over" placement="above"/>
				</notations>
			</note>
			<backup>
				<duration>4</duration>
			</backup>
			<note default-x="13.46" default-y="-50">
				<pitch>
					<step>C</step>
					<octave>4</octave>
				</pitch>
				<duration>1</duration>
				<voice>2</voice>
				<type>quarter</type>
				<stem>down</stem>
				<staff>1</staff>
			</note>
			<note default-x="61.78" default-y="-45">
				<pitch>
					<step>D</step>
					<octave>4</octave>
				</pitch>
				<duration>1</duration>
				<voice>2</voice>
				<type>quarter</type>
				<stem>down</stem>
				<staff>1</staff>
			</note>
			<note default-x="110.09" default-y="-50">
				<pitch>
					<step>C</step>
					<octave>4</octave>
				</pitch>
				<duration>1</duration>
				<voice>2</voice>
				<type>quarter</type>
				<stem>down</stem>
				<staff>1</staff>
			</note>
			<note default-x="158.41" default-y="-45">
				<pitch>
					<step>D</step>
					<octave>4</octave>
				</pitch>
				<duration>1</duration>
				<voice>2</voice>
				<type>quarter</type>
				<stem>down</stem>
				<staff>1</staff>
			</note>
			<backup>
				<duration>4</duration>
			</backup>
			<note default-x="12.5" default-y="-113.39">
				<pitch>
					<step>G</step>
					<octave>3</octave>
				</pitch>
				<duration>4</duration>
				<tie type="stop"/>
				<tie type="start"/>
				<voice>5</voice>
				<type>whole</type>
				<staff>2</staff>
				<notations>
					<tied type="stop"/>
					<tied type="start" orientation="over" placement="above"/>
				</notations>
			</note>
			<backup>
				<duration>4</duration>
			</backup>
			<note default-x="13.46" default-y="-133.39">
				<pitch>
					<step>C</step>
					<octave>3</octave>
				</pitch>
				<duration>1</duration>
				<voice>6</voice>
				<type>quarter</type>
				<stem>down</stem>
				<staff>2</staff>
			</note>
			<note default-x="61.78" default-y="-128.39">
				<pitch>
					<step>D</step>
					<octave>3</octave>
				</pitch>
				<duration>1</duration>
				<voice>6</voice>
				<type>quarter</type>
				<stem>down</stem>
				<staff>2</staff>
			</note>
			<note default-x="110.09" default-y="-133.39">
				<pitch>
					<step>C</step>
					<octave>3</octave>
				</pitch>
				<duration>1</duration>
				<voice>6</voice>
				<type>quarter</type>
				<stem>down</stem>
				<staff>2</staff>
			</note>
			<note default-x="158.41" default-y="-128.39">
				<pitch>
					<step>D</step>
					<octave>3</octave>
				</pitch>
				<duration>1</duration>
				<voice>6</voice>
				<type>quarter</type>
				<stem>down</stem>
				<staff>2</staff>
			</note>
		</measure>
		<measure number="17" width="208.53">
			<note default-x="12.5" default-y="-30">
				<pitch>
					<step>G</step>
					<octave>4</octave>
				</pitch>
				<duration>4</duration>
				<tie type="stop"/>
				<tie type="start"/>
				<voice>1</voice>
				<type>whole</type>
				<staff>1</staff>
				<notations>
					<tied type="stop"/>
					<tied type="start" orientation="over" placement="above"/>
				</notations>
			</note>
			<backup>
				<duration>4</duration>
			</backup>
			<note default-x="13.46" default-y="-50">
				<pitch>
					<step>C</step>
					<octave>4</octave>
				</pitch>
				<duration>1</duration>
				<voice>2</voice>
				<type>quarter</type>
				<stem>down</stem>
				<staff>1</staff>
			</note>
			<note default-x="61.78" default-y="-40">
				<pitch>
					<step>E</step>
					<octave>4</octave>
				</pitch>
				<duration>1</duration>
				<voice>2</voice>
				<type>quarter</type>
				<stem>down</stem>
				<staff>1</staff>
			</note>
			<note default-x="110.09" default-y="-50">
				<pitch>
					<step>C</step>
					<octave>4</octave>
				</pitch>
				<duration>1</duration>
				<voice>2</voice>
				<type>quarter</type>
				<stem>down</stem>
				<staff>1</staff>
			</note>
			<note default-x="158.41" default-y="-40">
				<pitch>
					<step>E</step>
					<octave>4</octave>
				</pitch>
				<duration>1</duration>
				<voice>2</voice>
				<type>quarter</type>
				<stem>down</stem>
				<staff>1</staff>
			</note>
			<backup>
				<duration>4</duration>
			</backup>
			<note default-x="12.5" default-y="-113.39">
				<pitch>
					<step>G</step>
					<octave>3</octave>
				</pitch>
				<duration>4</duration>
				<tie type="stop"/>
				<tie type="start"/>
				<voice>5</voice>
				<type>whole</type>
				<staff>2</staff>
				<notations>
					<tied type="stop"/>
					<tied type="start" orientation="over" placement="above"/>
				</notations>
			</note>
			<backup>
				<duration>4</duration>
			</backup>
			<note default-x="13.46" default-y="-133.39">
				<pitch>
					<step>C</step>
					<octave>3</octave>
				</pitch>
				<duration>1</duration>
				<voice>6</voice>
				<type>quarter</type>
				<stem>down</stem>
				<staff>2</staff>
			</note>
			<note default-x="61.78" default-y="-123.39">
				<pitch>
					<step>E</step>
					<octave>3</octave>
				</pitch>
				<duration>1</duration>
				<voice>6</voice>
				<type>quarter</type>
				<stem>down</stem>
				<staff>2</staff>
			</note>
			<note default-x="110.09" default-y="-133.39">
				<pitch>
					<step>C</step>
					<octave>3</octave>
				</pitch>
				<duration>1</duration>
				<voice>6</voice>
				<type>quarter</type>
				<stem>down</stem>
				<staff>2</staff>
			</note>
			<note default-x="158.41" default-y="-123.39">
				<pitch>
					<step>E</step>
					<octave>3</octave>
				</pitch>
				<duration>1</duration>
				<voice>6</voice>
				<type>quarter</type>
				<stem>down</stem>
				<staff>2</staff>
			</note>
		</measure>
		<measure number="18" width="208.53">
			<note default-x="12.5" default-y="-30">
				<pitch>
					<step>G</step>
					<octave>4</octave>
				</pitch>
				<duration>4</duration>
				<tie type="stop"/>
				<voice>1</voice>
				<type>whole</type>
				<staff>1</staff>
				<notations>
					<tied type="stop"/>
					<slur type="start" bezier-x="27.331996" bezier-y="21.428428" number="1"/>
				</notations>
			</note>
			<backup>
				<duration>4</duration>
			</backup>
			<note default-x="13.46" default-y="-50">
				<pitch>
					<step>C</step>
					<octave>4</octave>
				</pitch>
				<duration>1</duration>
				<voice>2</voice>
				<type>quarter</type>
				<stem>down</stem>
				<staff>1</staff>
			</note>
			<note default-x="61.78" default-y="-40">
				<pitch>
					<step>E</step>
					<octave>4</octave>
				</pitch>
				<duration>1</duration>
				<voice>2</voice>
				<type>quarter</type>
				<stem>down</stem>
				<staff>1</staff>
			</note>
			<note default-x="110.09" default-y="-50">
				<pitch>
					<step>C</step>
					<octave>4</octave>
				</pitch>
				<duration>1</duration>
				<voice>2</voice>
				<type>quarter</type>
				<stem>down</stem>
				<staff>1</staff>
			</note>
			<note default-x="158.41" default-y="-40">
				<pitch>
					<step>E</step>
					<octave>4</octave>
				</pitch>
				<duration>1</duration>
				<voice>2</voice>
				<type>quarter</type>
				<stem>down</stem>
				<staff>1</staff>
			</note>
			<backup>
				<duration>4</duration>
			</backup>
			<note default-x="12.5" default-y="-113.39">
				<pitch>
					<step>G</step>
					<octave>3</octave>
				</pitch>
				<duration>4</duration>
				<tie type="stop"/>
				<tie type="start"/>
				<voice>5</voice>
				<type>whole</type>
				<staff>2</staff>
				<notations>
					<tied type="stop"/>
					<tied type="start" orientation="over" placement="above"/>
				</notations>
			</note>
			<backup>
				<duration>4</duration>
			</backup>
			<note default-x="13.46" default-y="-133.39">
				<pitch>
					<step>C</step>
					<octave>3</octave>
				</pitch>
				<duration>1</duration>
				<voice>6</voice>
				<type>quarter</type>
				<stem>down</stem>
				<staff>2</staff>
			</note>
			<note default-x="61.78" default-y="-123.39">
				<pitch>
					<step>E</step>
					<octave>3</octave>
				</pitch>
				<duration>1</duration>
				<voice>6</voice>
				<type>quarter</type>
				<stem>down</stem>
				<staff>2</staff>
			</note>
			<note default-x="110.09" default-y="-133.39">
				<pitch>
					<step>C</step>
					<octave>3</octave>
				</pitch>
				<duration>1</duration>
				<voice>6</voice>
				<type>quarter</type>
				<stem>down</stem>
				<staff>2</staff>
			</note>
			<note default-x="158.41" default-y="-123.39">
				<pitch>
					<step>E</step>
					<octave>3</octave>
				</pitch>
				<duration>1</duration>
				<voice>6</voice>
				<type>quarter</type>
				<stem>down</stem>
				<staff>2</staff>
			</note>
		</measure>
		<measure number="19" width="339.05">
			<print new-system="yes">
				<system-layout>
					<system-margins>
						<left-margin>0</left-margin>
						<right-margin>0</right-margin>
					</system-margins>
					<system-distance>124.42</system-distance>
				</system-layout>
				<staff-layout number="2">
					<staff-distance>65.67</staff-distance>
				</staff-layout>
			</print>
			<note default-x="59.89" default-y="-30">
				<pitch>
					<step>G</step>
					<octave>4</octave>
				</pitch>
				<duration>4</duration>
				<voice>1</voice>
				<type>whole</type>
				<staff>1</staff>
				<notations>
					<slur type="stop" number="1" bezier-x="-3.93057" bezier-y="7.037413"/>
					<slur type="start" orientation="over" placement="above" bezier-x="43.492916" bezier-y="27.031112" number="1"/>
				</notations>
			</note>
			<backup>
				<duration>4</duration>
			</backup>
			<note default-x="60.86" default-y="-50">
				<pitch>
					<step>C</step>
					<octave>4</octave>
				</pitch>
				<duration>1</duration>
				<voice>2</voice>
				<type>quarter</type>
				<stem>down</stem>
				<staff>1</staff>
			</note>
			<note default-x="129.95" default-y="-35">
				<pitch>
					<step>F</step>
					<octave>4</octave>
				</pitch>
				<duration>1</duration>
				<voice>2</voice>
				<type>quarter</type>
				<stem>down</stem>
				<staff>1</staff>
			</note>
			<note default-x="199.05" default-y="-50">
				<pitch>
					<step>C</step>
					<octave>4</octave>
				</pitch>
				<duration>1</duration>
				<voice>2</voice>
				<type>quarter</type>
				<stem>down</stem>
				<staff>1</staff>
			</note>
			<note default-x="268.15" default-y="-35">
				<pitch>
					<step>F</step>
					<octave>4</octave>
				</pitch>
				<duration>1</duration>
				<voice>2</voice>
				<type>quarter</type>
				<stem>down</stem>
				<staff>1</staff>
			</note>
			<backup>
				<duration>4</duration>
			</backup>
			<note default-x="59.89" default-y="-110.67">
				<pitch>
					<step>G</step>
					<octave>3</octave>
				</pitch>
				<duration>4</duration>
				<tie type="stop"/>
				<voice>5</voice>
				<type>whole</type>
				<staff>2</staff>
				<notations>
					<tied type="stop"/>
					<slur type="start" orientation="over" placement="above" bezier-x="43.266116" bezier-y="26.960541" number="2"/>
				</notations>
			</note>
			<backup>
				<duration>4</duration>
			</backup>
			<note default-x="60.86" default-y="-130.67">
				<pitch>
					<step>C</step>
					<octave>3</octave>
				</pitch>
				<duration>1</duration>
				<voice>6</voice>
				<type>quarter</type>
				<stem>down</stem>
				<staff>2</staff>
			</note>
			<note default-x="129.95" default-y="-115.67">
				<pitch>
					<step>F</step>
					<octave>3</octave>
				</pitch>
				<duration>1</duration>
				<voice>6</voice>
				<type>quarter</type>
				<stem>down</stem>
				<staff>2</staff>
			</note>
			<note default-x="199.05" default-y="-130.67">
				<pitch>
					<step>C</step>
					<octave>3</octave>
				</pitch>
				<duration>1</duration>
				<voice>6</voice>
				<type>quarter</type>
				<stem>down</stem>
				<staff>2</staff>
			</note>
			<note default-x="268.15" default-y="-115.67">
				<pitch>
					<step>F</step>
					<octave>3</octave>
				</pitch>
				<duration>1</duration>
				<voice>6</voice>
				<type>quarter</type>
				<stem>down</stem>
				<staff>2</staff>
			</note>
		</measure>
		<measure number="20" width="291.65">
			<note default-x="12.5" default-y="-30">
				<pitch>
					<step>G</step>
					<octave>4</octave>
				</pitch>
				<duration>4</duration>
				<voice>1</voice>
				<type>whole</type>
				<staff>1</staff>
				<notations>
					<slur type="stop" number="1" bezier-x="-43.492916" bezier-y="27.031112"/>
					<slur type="start" orientation="over" placement="above" bezier-x="43.492916" bezier-y="27.031112" number="1"/>
				</notations>
			</note>
			<backup>
				<duration>4</duration>
			</backup>
			<note default-x="13.46" default-y="-50">
				<pitch>
					<step>C</step>
					<octave>4</octave>
				</pitch>
				<duration>1</duration>
				<voice>2</voice>
				<type>quarter</type>
				<stem>down</stem>
				<staff>1</staff>
			</note>
			<note default-x="82.56" default-y="-35">
				<pitch>
					<step>F</step>
					<octave>4</octave>
				</pitch>
				<duration>1</duration>
				<voice>2</voice>
				<type>quarter</type>
				<stem>down</stem>
				<staff>1</staff>
			</note>
			<note default-x="151.66" default-y="-50">
				<pitch>
					<step>C</step>
					<octave>4</octave>
				</pitch>
				<duration>1</duration>
				<voice>2</voice>
				<type>quarter</type>
				<stem>down</stem>
				<staff>1</staff>
			</note>
			<note default-x="220.75" default-y="-35">
				<pitch>
					<step>F</step>
					<octave>4</octave>
				</pitch>
				<duration>1</duration>
				<voice>2</voice>
				<type>quarter</type>
				<stem>down</stem>
				<staff>1</staff>
			</note>
			<backup>
				<duration>4</duration>
			</backup>
			<note default-x="12.5" default-y="-110.67">
				<pitch>
					<step>G</step>
					<octave>3</octave>
				</pitch>
				<duration>4</duration>
				<voice>5</voice>
				<type>whole</type>
				<staff>2</staff>
				<notations>
					<slur type="stop" number="2" bezier-x="-43.266116" bezier-y="26.960541"/>
					<slur type="start" orientation="over" placement="above" bezier-x="43.492916" bezier-y="27.031112" number="2"/>
				</notations>
			</note>
			<backup>
				<duration>4</duration>
			</backup>
			<note default-x="13.46" default-y="-130.67">
				<pitch>
					<step>C</step>
					<octave>3</octave>
				</pitch>
				<duration>1</duration>
				<voice>6</voice>
				<type>quarter</type>
				<stem>down</stem>
				<staff>2</staff>
			</note>
			<note default-x="82.56" default-y="-115.67">
				<pitch>
					<step>F</step>
					<octave>3</octave>
				</pitch>
				<duration>1</duration>
				<voice>6</voice>
				<type>quarter</type>
				<stem>down</stem>
				<staff>2</staff>
			</note>
			<note default-x="151.66" default-y="-130.67">
				<pitch>
					<step>C</step>
					<octave>3</octave>
				</pitch>
				<duration>1</duration>
				<voice>6</voice>
				<type>quarter</type>
				<stem>down</stem>
				<staff>2</staff>
			</note>
			<note default-x="220.75" default-y="-115.67">
				<pitch>
					<step>F</step>
					<octave>3</octave>
				</pitch>
				<duration>1</duration>
				<voice>6</voice>
				<type>quarter</type>
				<stem>down</stem>
				<staff>2</staff>
			</note>
		</measure>
		<measure number="21" width="291.65">
			<note default-x="12.5" default-y="-30">
				<pitch>
					<step>G</step>
					<octave>4</octave>
				</pitch>
				<duration>4</duration>
				<voice>1</voice>
				<type>whole</type>
				<staff>1</staff>
				<notations>
					<slur type="stop" number="1" bezier-x="-43.492916" bezier-y="27.031112"/>
					<slur type="start" orientation="over" placement="above" bezier-x="43.266116" bezier-y="26.960541" number="1"/>
				</notations>
			</note>
			<backup>
				<duration>4</duration>
			</backup>
			<note default-x="26.42" default-y="-35">
				<pitch>
					<step>F</step>
					<octave>4</octave>
				</pitch>
				<duration>1</duration>
				<voice>2</voice>
				<type>quarter</type>
				<stem>down</stem>
				<staff>1</staff>
			</note>
			<note default-x="82.56" default-y="-40">
				<pitch>
					<step>E</step>
					<octave>4</octave>
				</pitch>
				<duration>1</duration>
				<voice>2</voice>
				<type>quarter</type>
				<stem>down</stem>
				<staff>1</staff>
			</note>
			<note default-x="151.66" default-y="-35">
				<pitch>
					<step>F</step>
					<octave>4</octave>
				</pitch>
				<duration>1</duration>
				<voice>2</voice>
				<type>quarter</type>
				<stem>down</stem>
				<staff>1</staff>
			</note>
			<note default-x="220.75" default-y="-40">
				<pitch>
					<step>E</step>
					<octave>4</octave>
				</pitch>
				<duration>1</duration>
				<voice>2</voice>
				<type>quarter</type>
				<stem>down</stem>
				<staff>1</staff>
			</note>
			<backup>
				<duration>4</duration>
			</backup>
			<note default-x="12.5" default-y="-110.67">
				<pitch>
					<step>G</step>
					<octave>3</octave>
				</pitch>
				<duration>4</duration>
				<voice>5</voice>
				<type>whole</type>
				<staff>2</staff>
				<notations>
					<slur type="stop" number="2" bezier-x="-43.492916" bezier-y="27.031112"/>
					<slur type="start" orientation="over" placement="above" bezier-x="43.266116" bezier-y="26.960541" number="2"/>
				</notations>
			</note>
			<backup>
				<duration>4</duration>
			</backup>
			<note default-x="26.42" default-y="-115.67">
				<pitch>
					<step>F</step>
					<octave>3</octave>
				</pitch>
				<duration>1</duration>
				<voice>6</voice>
				<type>quarter</type>
				<stem>down</stem>
				<staff>2</staff>
			</note>
			<note default-x="82.56" default-y="-120.67">
				<pitch>
					<step>E</step>
					<octave>3</octave>
				</pitch>
				<duration>1</duration>
				<voice>6</voice>
				<type>quarter</type>
				<stem>down</stem>
				<staff>2</staff>
			</note>
			<note default-x="151.66" default-y="-115.67">
				<pitch>
					<step>F</step>
					<octave>3</octave>
				</pitch>
				<duration>1</duration>
				<voice>6</voice>
				<type>quarter</type>
				<stem>down</stem>
				<staff>2</staff>
			</note>
			<note default-x="220.75" default-y="-120.67">
				<pitch>
					<step>E</step>
					<octave>3</octave>
				</pitch>
				<duration>1</duration>
				<voice>6</voice>
				<type>quarter</type>
				<stem>down</stem>
				<staff>2</staff>
			</note>
		</measure>
		<measure number="22" width="291.65">
			<note default-x="12.5" default-y="-30">
				<pitch>
					<step>G</step>
					<octave>4</octave>
				</pitch>
				<duration>4</duration>
				<tie type="start"/>
				<voice>1</voice>
				<type>whole</type>
				<staff>1</staff>
				<notations>
					<tied type="start" orientation="over" placement="above"/>
					<slur type="stop" number="1" bezier-x="-43.266116" bezier-y="26.960541"/>
				</notations>
			</note>
			<backup>
				<duration>4</duration>
			</backup>
			<note default-x="26.42" default-y="-35">
				<pitch>
					<step>F</step>
					<octave>4</octave>
				</pitch>
				<duration>1</duration>
				<voice>2</voice>
				<type>quarter</type>
				<stem>down</stem>
				<staff>1</staff>
			</note>
			<note default-x="82.56" default-y="-40">
				<pitch>
					<step>E</step>
					<octave>4</octave>
				</pitch>
				<duration>1</duration>
				<voice>2</voice>
				<type>quarter</type>
				<stem>down</stem>
				<staff>1</staff>
			</note>
			<note default-x="151.66" default-y="-35">
				<pitch>
					<step>F</step>
					<octave>4</octave>
				</pitch>
				<duration>1</duration>
				<voice>2</voice>
				<type>quarter</type>
				<stem>down</stem>
				<staff>1</staff>
			</note>
			<note default-x="220.75" default-y="-40">
				<pitch>
					<step>E</step>
					<octave>4</octave>
				</pitch>
				<duration>1</duration>
				<voice>2</voice>
				<type>quarter</type>
				<stem>down</stem>
				<staff>1</staff>
			</note>
			<backup>
				<duration>4</duration>
			</backup>
			<note default-x="12.5" default-y="-110.67">
				<pitch>
					<step>G</step>
					<octave>3</octave>
				</pitch>
				<duration>4</duration>
				<tie type="start"/>
				<voice>5</voice>
				<type>whole</type>
				<staff>2</staff>
				<notations>
					<tied type="start" orientation="over" placement="above"/>
					<slur type="stop" number="2" bezier-x="-43.266116" bezier-y="26.960541"/>
				</notations>
			</note>
			<backup>
				<duration>4</duration>
			</backup>
			<note default-x="26.42" default-y="-115.67">
				<pitch>
					<step>F</step>
					<octave>3</octave>
				</pitch>
				<duration>1</duration>
				<voice>6</voice>
				<type>quarter</type>
				<stem>down</stem>
				<staff>2</staff>
			</note>
			<note default-x="82.56" default-y="-120.67">
				<pitch>
					<step>E</step>
					<octave>3</octave>
				</pitch>
				<duration>1</duration>
				<voice>6</voice>
				<type>quarter</type>
				<stem>down</stem>
				<staff>2</staff>
			</note>
			<note default-x="151.66" default-y="-115.67">
				<pitch>
					<step>F</step>
					<octave>3</octave>
				</pitch>
				<duration>1</duration>
				<voice>6</voice>
				<type>quarter</type>
				<stem>down</stem>
				<staff>2</staff>
			</note>
			<note default-x="220.75" default-y="-120.67">
				<pitch>
					<step>E</step>
					<octave>3</octave>
				</pitch>
				<duration>1</duration>
				<voice>6</voice>
				<type>quarter</type>
				<stem>down</stem>
				<staff>2</staff>
			</note>
		</measure>
		<measure number="23" width="336.75">
			<print new-system="yes">
				<system-layout>
					<system-margins>
						<left-margin>0</left-margin>
						<right-margin>0</right-margin>
					</system-margins>
					<system-distance>124.42</system-distance>
				</system-layout>
				<staff-layout number="2">
					<staff-distance>63.63</staff-distance>
				</staff-layout>
			</print>
			<note default-x="59.89" default-y="-30">
				<pitch>
					<step>G</step>
					<octave>4</octave>
				</pitch>
				<duration>4</duration>
				<tie type="stop"/>
				<voice>1</voice>
				<type>whole</type>
				<staff>1</staff>
				<notations>
					<tied type="stop"/>
					<slur type="start" orientation="over" placement="above" bezier-x="42.918356" bezier-y="26.851972" number="1"/>
				</notations>
			</note>
			<backup>
				<duration>4</duration>
			</backup>
			<note default-x="73.81" default-y="-35">
				<pitch>
					<step>F</step>
					<octave>4</octave>
				</pitch>
				<duration>1</duration>
				<voice>2</voice>
				<type>quarter</type>
				<stem>down</stem>
				<staff>1</staff>
			</note>
			<note default-x="129.38" default-y="-45">
				<pitch>
					<step>D</step>
					<octave>4</octave>
				</pitch>
				<duration>1</duration>
				<voice>2</voice>
				<type>quarter</type>
				<stem>down</stem>
				<staff>1</staff>
			</note>
			<note default-x="197.9" default-y="-35">
				<pitch>
					<step>F</step>
					<octave>4</octave>
				</pitch>
				<duration>1</duration>
				<voice>2</voice>
				<type>quarter</type>
				<stem>down</stem>
				<staff>1</staff>
			</note>
			<note default-x="266.42" default-y="-45">
				<pitch>
					<step>D</step>
					<octave>4</octave>
				</pitch>
				<duration>1</duration>
				<voice>2</voice>
				<type>quarter</type>
				<stem>down</stem>
				<staff>1</staff>
			</note>
			<backup>
				<duration>4</duration>
			</backup>
			<note default-x="59.89" default-y="-108.63">
				<pitch>
					<step>G</step>
					<octave>3</octave>
				</pitch>
				<duration>4</duration>
				<tie type="stop"/>
				<voice>5</voice>
				<type>whole</type>
				<staff>2</staff>
				<notations>
					<tied type="stop"/>
					<slur type="start" orientation="over" placement="above" bezier-x="42.918356" bezier-y="26.851972" number="2"/>
				</notations>
			</note>
			<backup>
				<duration>4</duration>
			</backup>
			<note default-x="73.81" default-y="-113.63">
				<pitch>
					<step>F</step>
					<octave>3</octave>
				</pitch>
				<duration>1</duration>
				<voice>6</voice>
				<type>quarter</type>
				<stem>down</stem>
				<staff>2</staff>
			</note>
			<note default-x="129.38" default-y="-123.63">
				<pitch>
					<step>D</step>
					<octave>3</octave>
				</pitch>
				<duration>1</duration>
				<voice>6</voice>
				<type>quarter</type>
				<stem>down</stem>
				<staff>2</staff>
			</note>
			<note default-x="197.9" default-y="-113.63">
				<pitch>
					<step>F</step>
					<octave>3</octave>
				</pitch>
				<duration>1</duration>
				<voice>6</voice>
				<type>quarter</type>
				<stem>down</stem>
				<staff>2</staff>
			</note>
			<note default-x="266.42" default-y="-123.63">
				<pitch>
					<step>D</step>
					<octave>3</octave>
				</pitch>
				<duration>1</duration>
				<voice>6</voice>
				<type>quarter</type>
				<stem>down</stem>
				<staff>2</staff>
				<notations>
					<articulations>
						<staccato placement="below" default-x="1.93" default-y="-54"/>
					</articulations>
				</notations>
			</note>
		</measure>
		<measure number="24" width="289.35">
			<note default-x="12.5" default-y="-30">
				<pitch>
					<step>G</step>
					<octave>4</octave>
				</pitch>
				<duration>4</duration>
				<voice>1</voice>
				<type>whole</type>
				<staff>1</staff>
				<notations>
					<slur type="stop" number="1" bezier-x="-42.918356" bezier-y="26.851972"/>
					<slur type="start" orientation="over" placement="above" bezier-x="43.145156" bezier-y="26.922827" number="1"/>
				</notations>
			</note>
			<backup>
				<duration>4</duration>
			</backup>
			<note default-x="26.42" default-y="-35">
				<pitch>
					<step>F</step>
					<octave>4</octave>
				</pitch>
				<duration>1</duration>
				<voice>2</voice>
				<type>quarter</type>
				<stem>down</stem>
				<staff>1</staff>
			</note>
			<note default-x="81.98" default-y="-45">
				<pitch>
					<step>D</step>
					<octave>4</octave>
				</pitch>
				<duration>1</duration>
				<voice>2</voice>
				<type>quarter</type>
				<stem>down</stem>
				<staff>1</staff>
			</note>
			<note default-x="150.51" default-y="-35">
				<pitch>
					<step>F</step>
					<octave>4</octave>
				</pitch>
				<duration>1</duration>
				<voice>2</voice>
				<type>quarter</type>
				<stem>down</stem>
				<staff>1</staff>
			</note>
			<note default-x="219.03" default-y="-45">
				<pitch>
					<step>D</step>
					<octave>4</octave>
				</pitch>
				<duration>1</duration>
				<voice>2</voice>
				<type>quarter</type>
				<stem>down</stem>
				<staff>1</staff>
			</note>
			<backup>
				<duration>4</duration>
			</backup>
			<note default-x="12.5" default-y="-108.63">
				<pitch>
					<step>G</step>
					<octave>3</octave>
				</pitch>
				<duration>4</duration>
				<voice>5</voice>
				<type>whole</type>
				<staff>2</staff>
				<notations>
					<slur type="stop" number="2" bezier-x="-42.918356" bezier-y="26.851972"/>
					<slur type="start" orientation="over" placement="above" bezier-x="43.145156" bezier-y="26.922827" number="2"/>
				</notations>
			</note>
			<backup>
				<duration>4</duration>
			</backup>
			<note default-x="26.42" default-y="-113.63">
				<pitch>
					<step>F</step>
					<octave>3</octave>
				</pitch>
				<duration>1</duration>
				<voice>6</voice>
				<type>quarter</type>
				<stem>down</stem>
				<staff>2</staff>
			</note>
			<note default-x="81.98" default-y="-123.63">
				<pitch>
					<step>D</step>
					<octave>3</octave>
				</pitch>
				<duration>1</duration>
				<voice>6</voice>
				<type>quarter</type>
				<stem>down</stem>
				<staff>2</staff>
			</note>
			<note default-x="150.51" default-y="-113.63">
				<pitch>
					<step>F</step>
					<octave>3</octave>
				</pitch>
				<duration>1</duration>
				<voice>6</voice>
				<type>quarter</type>
				<stem>down</stem>
				<staff>2</staff>
			</note>
			<note default-x="219.03" default-y="-123.63">
				<pitch>
					<step>D</step>
					<octave>3</octave>
				</pitch>
				<duration>1</duration>
				<voice>6</voice>
				<type>quarter</type>
				<stem>down</stem>
				<staff>2</staff>
			</note>
		</measure>
		<measure number="25" width="289.35">
			<note default-x="12.5" default-y="-30">
				<pitch>
					<step>G</step>
					<octave>4</octave>
				</pitch>
				<duration>4</duration>
				<voice>1</voice>
				<type>whole</type>
				<staff>1</staff>
				<notations>
					<slur type="stop" number="1" bezier-x="-43.145156" bezier-y="26.922827"/>
					<slur type="start" orientation="over" placement="above" bezier-x="43.145156" bezier-y="26.922827" number="1"/>
				</notations>
			</note>
			<backup>
				<duration>4</duration>
			</backup>
			<note default-x="26.42" default-y="-35">
				<pitch>
					<step>F</step>
					<octave>4</octave>
				</pitch>
				<duration>1</duration>
				<voice>2</voice>
				<type>quarter</type>
				<stem>down</stem>
				<staff>1</staff>
			</note>
			<note default-x="81.98" default-y="-50">
				<pitch>
					<step>C</step>
					<octave>4</octave>
				</pitch>
				<duration>1</duration>
				<voice>2</voice>
				<type>quarter</type>
				<stem>down</stem>
				<staff>1</staff>
			</note>
			<note default-x="150.51" default-y="-35">
				<pitch>
					<step>F</step>
					<octave>4</octave>
				</pitch>
				<duration>1</duration>
				<voice>2</voice>
				<type>quarter</type>
				<stem>down</stem>
				<staff>1</staff>
			</note>
			<note default-x="219.03" default-y="-50">
				<pitch>
					<step>C</step>
					<octave>4</octave>
				</pitch>
				<duration>1</duration>
				<voice>2</voice>
				<type>quarter</type>
				<stem>down</stem>
				<staff>1</staff>
			</note>
			<backup>
				<duration>4</duration>
			</backup>
			<note default-x="12.5" default-y="-108.63">
				<pitch>
					<step>G</step>
					<octave>3</octave>
				</pitch>
				<duration>4</duration>
				<voice>5</voice>
				<type>whole</type>
				<staff>2</staff>
				<notations>
					<slur type="stop" number="2" bezier-x="-43.145156" bezier-y="26.922827"/>
					<slur type="start" orientation="over" placement="above" bezier-x="43.447556" bezier-y="27.017012" number="2"/>
				</notations>
			</note>
			<backup>
				<duration>4</duration>
			</backup>
			<note default-x="26.42" default-y="-113.63">
				<pitch>
					<step>F</step>
					<octave>3</octave>
				</pitch>
				<duration>1</duration>
				<voice>6</voice>
				<type>quarter</type>
				<stem>down</stem>
				<staff>2</staff>
			</note>
			<note default-x="81.98" default-y="-128.63">
				<pitch>
					<step>C</step>
					<octave>3</octave>
				</pitch>
				<duration>1</duration>
				<voice>6</voice>
				<type>quarter</type>
				<stem>down</stem>
				<staff>2</staff>
			</note>
			<note default-x="150.51" default-y="-113.63">
				<pitch>
					<step>F</step>
					<octave>3</octave>
				</pitch>
				<duration>1</duration>
				<voice>6</voice>
				<type>quarter</type>
				<stem>down</stem>
				<staff>2</staff>
			</note>
			<note default-x="219.03" default-y="-128.63">
				<pitch>
					<step>C</step>
					<octave>3</octave>
				</pitch>
				<duration>1</duration>
				<voice>6</voice>
				<type>quarter</type>
				<stem>down</stem>
				<staff>2</staff>
			</note>
		</measure>
		<measure number="26" width="298.55">
			<note default-x="12.5" default-y="-30">
				<pitch>
					<step>G</step>
					<octave>4</octave>
				</pitch>
				<duration>4</duration>
				<voice>1</voice>
				<type>whole</type>
				<staff>1</staff>
				<notations>
					<slur type="stop" number="1" bezier-x="-43.145156" bezier-y="26.922827"/>
				</notations>
			</note>
			<backup>
				<duration>4</duration>
			</backup>
			<note default-x="26.42" default-y="-35">
				<pitch>
					<step>F</step>
					<octave>4</octave>
				</pitch>
				<duration>1</duration>
				<voice>2</voice>
				<type>quarter</type>
				<stem>down</stem>
				<staff>1</staff>
			</note>
			<note default-x="81.98" default-y="-50">
				<pitch>
					<step>C</step>
					<octave>4</octave>
				</pitch>
				<duration>1</duration>
				<voice>2</voice>
				<type>quarter</type>
				<stem>down</stem>
				<staff>1</staff>
			</note>
			<note default-x="150.51" default-y="-35">
				<pitch>
					<step>F</step>
					<octave>4</octave>
				</pitch>
				<duration>1</duration>
				<voice>2</voice>
				<type>quarter</type>
				<stem>down</stem>
				<staff>1</staff>
			</note>
			<note default-x="219.03" default-y="-50">
				<pitch>
					<step>C</step>
					<octave>4</octave>
				</pitch>
				<duration>1</duration>
				<voice>2</voice>
				<type>quarter</type>
				<stem>down</stem>
				<staff>1</staff>
			</note>
			<backup>
				<duration>4</duration>
			</backup>
			<note default-x="12.5" default-y="-108.63">
				<pitch>
					<step>G</step>
					<octave>3</octave>
				</pitch>
				<duration>4</duration>
				<voice>5</voice>
				<type>whole</type>
				<staff>2</staff>
				<notations>
					<slur type="stop" number="2" bezier-x="-43.447556" bezier-y="27.017012"/>
				</notations>
			</note>
			<backup>
				<duration>4</duration>
			</backup>
			<note default-x="26.42" default-y="-113.63">
				<pitch>
					<step>F</step>
					<octave>3</octave>
				</pitch>
				<duration>1</duration>
				<voice>6</voice>
				<type>quarter</type>
				<stem>down</stem>
				<staff>2</staff>
			</note>
			<note default-x="81.98" default-y="-128.63">
				<pitch>
					<step>C</step>
					<octave>3</octave>
				</pitch>
				<duration>1</duration>
				<voice>6</voice>
				<type>quarter</type>
				<stem>down</stem>
				<staff>2</staff>
			</note>
			<note default-x="150.51" default-y="-113.63">
				<pitch>
					<step>F</step>
					<octave>3</octave>
				</pitch>
				<duration>1</duration>
				<voice>6</voice>
				<type>quarter</type>
				<stem>down</stem>
				<staff>2</staff>
			</note>
			<note default-x="219.03" default-y="-128.63">
				<pitch>
					<step>C</step>
					<octave>3</octave>
				</pitch>
				<duration>1</duration>
				<voice>6</voice>
				<type>quarter</type>
				<stem>down</stem>
				<staff>2</staff>
			</note>
			<barline location="right">
				<bar-style>light-heavy</bar-style>
			</barline>
		</measure>
	</part>
</score-partwise>
